# xmcd
#
# Track frame offsets:
#	150
#	16487
#	29272
#	46515
#	59920
#	70272
#	80952
#	92035
#	105735
#	119595
#	136550
#	149410
#
# Disc length: 2142 seconds
#
# Revision: 1
# Processed by: cddbd v1.5.1PL2 Copyright (c) Steve Scherf et al.
# Submitted via: EasyCDDAExtractor 8.1.2.3
#
DISCID=aa085c0c
DTITLE=Banda Caña Verde - Junto Al Mar
DYEAR=1900
DGENRE=Banda
TTITLE0=No me faltes nunca
TTITLE1=Por ti
TTITLE2=Ya no tengo corazon
TTITLE3=Que bonito
TTITLE4=Junto al mar
TTITLE5=Nueve vidas y 7 amores
TTITLE6=Nada quedo
TTITLE7=No, No, No
TTITLE8=Te quiero olvidar
TTITLE9=Por favor no te vayas
TTITLE10=Baila conmigo
TTITLE11=Un rinconcito en el cielo
EXTD=
EXTT0=
EXTT1=
EXTT2=
EXTT3=
EXTT4=
EXTT5=
EXTT6=
EXTT7=
EXTT8=
EXTT9=
EXTT10=
EXTT11=
PLAYORDER=
